<svg width="456.333" height="456.333" xmlns="http://www.w3.org/2000/svg">
 <g>
  <title>background</title>
  <rect x="-1" y="-1" width="458.333" height="458.333" id="canvas_background" fill="none"/>
 </g>

 <g>
  <title>Layer 1</title>
  <g transform="rotate(22 228.16651916503915,234.63650512695312) " stroke="null" id="svg_1">
   <path d="m383.208422,54.595529c-11.793453,0 -21.384719,9.787713 -21.384719,21.823507c0,6.781329 3.122342,13.060805 8.259747,17.125342l-90.462096,212.322515c-1.272753,-0.228832 -2.550145,-0.354296 -3.812072,-0.299849c-1.342344,0.032352 -2.67309,0.202004 -3.988371,0.501853l-72.372924,-147.709721c4.613922,-4.081107 7.334953,-10.022069 7.334953,-16.471197c0,-12.035794 -9.591266,-21.823507 -21.385493,-21.823507c-11.794226,0 -21.385493,9.787713 -21.385493,21.823507c0,6.623514 3.004037,12.815402 7.949678,16.890986l-95.072924,212.590012c-1.230224,-0.224098 -2.491379,-0.338514 -3.764131,-0.338514c-11.794226,0 -21.385493,9.787713 -21.385493,21.823507s9.591266,21.823507 21.385493,21.823507c11.793453,0 21.384719,-9.787713 21.384719,-21.823507c0,-6.639295 -2.988572,-12.842231 -7.901737,-16.934385l95.051274,-212.541089c2.683915,0.479759 5.517066,0.43636 8.217219,-0.147557l72.393802,147.742862c-4.640985,4.081107 -7.372841,10.000764 -7.372841,16.411227c0,12.035794 9.591266,21.823507 21.385493,21.823507s21.385493,-9.787713 21.385493,-21.823507c0,-6.743453 -3.127755,-13.011882 -8.275985,-17.081942l90.480653,-212.36118c13.012852,2.285957 24.721249,-8.357905 24.721249,-21.522869c0,-12.035794 -9.591266,-21.823507 -21.385493,-21.823507zm-310.083845,349.169799c-5.896727,0 -10.69236,-4.893857 -10.69236,-10.911359s4.795633,-10.911359 10.69236,-10.911359c1.555758,0 3.052751,0.332991 4.453088,0.987136c3.790421,1.77858 6.239272,5.674254 6.239272,9.924223c0,6.017502 -4.795633,10.911359 -10.69236,10.911359zm117.083195,-252.127512c-0.032476,0.015782 -0.058766,0.032352 -0.08583,0.043399l-0.550547,0.261974c-2.518442,1.074723 -5.399533,1.134693 -7.90715,0.174386c-0.218827,-0.13651 -0.44384,-0.267497 -0.683544,-0.37639c-3.870838,-1.800674 -6.276387,-5.575619 -6.276387,-9.853206c0,-6.017502 4.795633,-10.911359 10.69236,-10.911359s10.69236,4.893857 10.69236,10.911359c0,4.13003 -2.230024,7.845794 -5.881262,9.749837zm86.075506,186.65778c-5.896727,0 -10.69236,-4.893857 -10.69236,-10.911359c0,-4.102412 2.282604,-7.822911 5.95008,-9.694602c2.871039,-1.467684 5.4583,-1.739915 8.944065,-0.190957c3.94043,1.767533 6.490575,5.646636 6.490575,9.885559c0,6.017502 -4.795633,10.911359 -10.69236,10.911359zm106.925144,-250.965991c-1.330746,0 -2.710205,-0.326678 -4.21261,-0.992659c-0.005413,-0.004734 -0.010825,-0.004734 -0.016238,-0.011047c-3.924192,-1.735181 -6.463511,-5.624542 -6.463511,-9.907653c0,-6.017502 4.795633,-10.911359 10.69236,-10.911359s10.69236,4.893857 10.69236,10.911359s-4.795633,10.911359 -10.69236,10.911359z" id="svg_2" stroke="#4464f2" stroke-width="5" fill="#4464f2"/>
  </g>
  <g id="svg_3"/>
  <g id="svg_4"/>
  <g id="svg_5"/>
  <g id="svg_6"/>
  <g id="svg_7"/>
  <g id="svg_8"/>
  <g id="svg_9"/>
  <g id="svg_10"/>
  <g id="svg_11"/>
  <g id="svg_12"/>
  <g id="svg_13"/>
  <g id="svg_14"/>
  <g id="svg_15"/>
  <g id="svg_16"/>
  <g id="svg_17"/>
 </g>
</svg>