<?xml version="1.0" encoding="utf-8"?>
<!-- Svg Vector Icons : http://www.onlinewebfonts.com/icon -->
<!DOCTYPE svg PUBLIC "-//W3C//DTD SVG 1.1//EN" "http://www.w3.org/Graphics/SVG/1.1/DTD/svg11.dtd">
<svg version="1.1" xmlns="http://www.w3.org/2000/svg" xmlns:xlink="http://www.w3.org/1999/xlink" x="0px" y="0px" viewBox="0 0 1000 1000" enable-background="new 0 0 1000 1000" xml:space="preserve">
<metadata> Svg Vector Icons : http://www.onlinewebfonts.com/icon </metadata>
<g><g transform="translate(0.000000,511.000000) scale(0.100000,-0.100000)"><path d="M5218.8,3144.2l-277.3-416l850.6-564l850.6-567l-3272.8-9.2L100,1581.7v-493.1V595.6h4890.8c2690.4,0,4878.4,12.3,4863,24.6c-18.5,15.4-708.8,483.8-1540.9,1038.6c-829,557.8-1802.8,1211.1-2163.4,1454.6l-653.3,443.8L5218.8,3144.2z"/><path d="M161.6-433.7c58.5-52.4,4274.4-2881.4,4326.8-2903c21.6-9.2,138.7,138.7,305.1,385.2l265,400.6l-191.1,135.6c-104.8,74-490,335.9-853.7,579.4l-662.6,443.8l3275.9,9.2l3272.8,6.2v493.1v493.1H5009.2C892-390.6,124.6-396.8,161.6-433.7z"/></g></g>
</svg>